<svg width="336" height="200" viewBox="0 0 336 200" fill="none" xmlns="http://www.w3.org/2000/svg">
<path d="M309.127 143C303.107 143 297.913 141.519 293.547 138.557C289.207 135.564 285.858 131.393 283.499 126.043C281.166 120.662 280 114.406 280 107.272C280 100.139 281.166 93.8514 283.499 88.4106C285.858 82.9395 289.14 78.6776 293.343 75.6247C297.574 72.5416 302.51 71 308.151 71C311.405 71 314.619 71.6045 317.792 72.8136C320.965 74.0227 323.854 75.9874 326.457 78.7078C329.061 81.398 331.135 84.9647 332.681 89.4081C334.227 93.8514 335 99.3224 335 105.821V105.821C335 108.325 332.97 110.355 330.466 110.355H291.459C288.905 110.355 286.834 108.285 286.834 105.73V105.73C286.834 103.176 288.905 101.106 291.459 101.106H314.424C320.396 101.106 325.605 96.0176 323.121 90.5869V90.5869C321.738 87.5038 319.758 85.0705 317.182 83.2872C314.633 81.5038 311.622 80.6121 308.151 80.6121C304.327 80.6121 301.018 81.67 298.225 83.7859C295.459 85.8715 293.33 88.5919 291.838 91.9471C290.346 95.3023 289.601 98.8992 289.601 102.738V108.904C289.601 114.164 290.414 118.622 292.041 122.28C293.696 125.907 295.987 128.673 298.916 130.577C301.845 132.451 305.249 133.388 309.127 133.388C311.649 133.388 313.928 132.995 315.962 132.209C318.023 131.393 319.799 130.184 321.291 128.582C321.77 128.058 322.214 127.493 322.623 126.887C324.143 124.639 326.82 123.154 329.41 123.965V123.965C331.981 124.769 333.503 127.507 332.288 129.912C331.425 131.62 330.362 133.202 329.101 134.657C326.796 137.287 323.948 139.343 320.558 140.824C317.168 142.275 313.358 143 309.127 143Z" fill="url(#paint0_linear_12_18)"/>
<path d="M218.273 100.838V134.363C218.273 139.133 214.406 143 209.637 143V143C204.867 143 201 139.133 201 134.363V81.2563C201 76.6482 204.736 72.9126 209.344 72.9126H212.212C215.236 72.9126 217.688 75.3641 217.688 78.3882V82.8904C217.688 83.428 218.123 83.8638 218.661 83.8638V83.8638C218.969 83.8638 219.258 83.7166 219.448 83.4734C222.083 80.095 225.985 77.3656 231.155 75.2853C236.522 73.0951 243.451 72 251.941 72C259.553 72 266.213 72.9734 271.922 74.9203C277.631 76.8368 282.071 79.7571 285.243 83.6812C288.414 87.575 290 92.503 290 98.4653V134.363C290 139.133 286.133 143 281.363 143V143C276.594 143 272.727 139.133 272.727 134.363V99.1954C272.727 93.6894 270.434 89.4002 265.847 86.3278C261.26 83.2249 254.966 81.6735 246.964 81.6735C241.45 81.6735 236.522 82.4188 232.179 83.9094C227.885 85.4 224.494 87.575 222.006 90.4344C219.517 93.2939 218.273 96.7618 218.273 100.838Z" fill="url(#paint1_linear_12_18)"/>
<path d="M188.881 143C185.002 143 181.857 139.855 181.857 135.976V80.1808C181.857 76.3016 185.002 73.1569 188.881 73.1569V73.1569C192.76 73.1569 195.905 76.3016 195.905 80.1808V135.976C195.905 139.855 192.76 143 188.881 143V143ZM189 61.5164C186.262 61.5164 183.901 60.8041 181.917 59.3793C179.972 57.9546 179 56.2418 179 54.2411C179 52.2404 179.972 50.5277 181.917 49.1029C183.901 47.6782 186.262 61.5164 189 61.5164C191.738 61.5164 194.079 47.6782 196.024 49.1029C198.008 50.5277 199 52.2404 199 54.2411C199 56.2418 198.008 57.9546 196.024 59.3793C194.079 60.8041 191.738 61.5164 189 61.5164Z" fill="url(#paint2_linear_12_18)"/>
<path d="M185.434 48.1791C185.154 47.4169 185.147 46.5802 185.415 45.8136C186.483 42.7619 190.766 42.6647 191.967 45.6666C192.308 46.521 192.3 47.476 191.943 48.324C190.711 51.2494 186.532 51.1575 185.434 48.1791Z" fill="url(#paint3_linear_12_18)"/>
<path d="M126.685 103.52V165.907C126.685 169.825 123.51 173 119.593 173V173C115.675 173 112.5 169.825 112.5 165.907V22.1205C112.5 15.9496 119.835 12.7224 124.385 16.8917V16.8917C125.85 18.2351 126.685 20.1321 126.685 22.1205V74.9794C126.685 75.2928 126.939 75.5469 127.253 75.5469V75.5469C127.503 75.5469 127.724 75.3816 127.798 75.1419C129.58 69.3666 132.213 64.7643 135.696 61.335C139.294 57.7757 144.081 55.9961 150.055 55.9961C155.238 55.9961 159.776 57.5752 163.671 60.7334C167.566 63.8415 170.587 68.6289 172.732 75.0957C174.911 81.5124 176 89.6836 176 99.6094V164.806C176 169.331 172.331 173 167.806 173V173C163.28 173 159.611 169.331 159.611 164.806V99.6094C159.509 98.1331 159.439 96.7922 159.394 95.5556C159.043 85.899 156.351 71.9375 146.688 71.9375V71.9375C142.859 71.9375 139.426 73.1657 136.39 75.6221C133.386 78.0785 131.009 81.6628 129.26 86.375C127.543 91.0872 126.685 96.8021 126.685 103.52Z" fill="url(#paint4_linear_12_18)"/>
<path fill-rule="evenodd" clip-rule="evenodd" d="M94.8559 143C99.5389 143 102.602 138.093 100.546 133.886L90.9277 114.202C89.5126 111.307 86.1951 109.878 83.1191 110.841V110.841C79.263 112.047 77.4196 116.433 79.2562 120.032L89.2146 139.545C90.2965 141.666 92.4757 143 94.8559 143V143Z" fill="url(#paint5_linear_12_18)"/>
<path d="M71.4153 50.3676C78.34 50.3676 84.024 51.6039 88.4673 54.0765C92.9107 56.519 96.1999 59.8811 98.335 64.163C100.47 68.4448 101.538 73.3147 101.538 78.7725C101.538 84.2303 100.47 89.07 98.335 93.2915C96.1999 97.513 92.9251 100.83 88.5106 103.242C84.0961 105.624 78.4554 106.815 71.5884 106.815H66.2218C70.9537 106.815 79.7826 95.9601 82.6679 94.5127C85.5821 93.0654 87.6883 91.0149 88.9867 88.3614C90.3139 85.6777 90.9775 82.4814 90.9775 78.7725C90.9775 75.0636 90.3139 71.822 88.9867 69.0479C87.6595 66.2737 85.5388 64.1328 82.6246 62.6251C79.7105 61.0873 75.8587 60.3184 71.0691 60.3184C63.7 60.3184 59.5684 60.3184 52.1993 60.3184V67.3744V135.491C52.1993 139.638 48.8375 143 44.6904 143V143C40.5433 143 37.1814 139.638 37.1814 135.491V91.5689C37.1814 79.7054 42.4476 68.454 51.5572 60.8541L52.1993 60.3184L1 42L53.4727 49.9197C55.4486 50.2179 57.444 50.3676 59.4423 50.3676H71.4153Z" fill="url(#paint6_linear_12_18)"/>
<circle cx="190" cy="100" r="100" fill="url(#paint7_linear_12_18)"/>
<path d="M308.151 70.5C311.469 70.5001 314.743 71.117 317.97 72.3467L318.576 72.5879C321.587 73.8388 324.333 75.7663 326.816 78.3604L327.31 78.8867C329.743 81.5717 331.687 85.0302 333.153 89.2441L333.438 90.1016C334.817 94.4509 335.5 99.6947 335.5 105.821C335.5 108.601 333.246 110.855 330.466 110.855H291.459C291.001 110.855 290.557 110.794 290.134 110.681C290.299 115.117 291.09 118.91 292.496 122.072L292.808 122.729C294.399 125.958 296.528 128.427 299.189 130.157H299.188C302.027 131.973 305.334 132.888 309.127 132.888C311.443 132.888 313.535 132.55 315.409 131.881L315.781 131.742C317.773 130.953 319.485 129.787 320.925 128.241C321.386 127.736 321.814 127.192 322.209 126.607C323.803 124.249 326.685 122.588 329.56 123.487C332.356 124.362 334.12 127.396 332.734 130.138C331.852 131.883 330.767 133.499 329.479 134.985L329.478 134.987C327.121 137.675 324.212 139.773 320.759 141.282L320.755 141.283C317.294 142.764 313.415 143.5 309.127 143.5C303.021 143.5 297.726 141.997 293.266 138.971L293.263 138.969C288.839 135.918 285.434 131.669 283.041 126.244L283.04 126.241C280.675 120.786 279.5 114.46 279.5 107.272C279.5 100.085 280.675 93.7283 283.039 88.2139V88.2129L283.267 87.6963C285.639 82.4013 288.897 78.2354 293.05 75.2197C297.373 72.0699 302.414 70.5 308.151 70.5ZM308.151 81.1123C304.426 81.1123 301.225 82.1406 298.526 84.1846L298.525 84.1855C296 86.0899 294.017 88.539 292.576 91.542L292.295 92.1504C291.09 94.86 290.381 97.7321 290.169 100.77C290.581 100.663 291.013 100.605 291.459 100.605H314.424C317.275 100.605 319.932 99.3885 321.57 97.5498C323.196 95.7253 323.815 93.3045 322.667 90.7949L323.121 90.5869L322.665 90.792C321.316 87.7853 319.393 85.4257 316.897 83.6982L316.896 83.6973C314.44 81.9795 311.532 81.1124 308.151 81.1123Z" stroke="white"/>
<path d="M251.94 71.5C259.592 71.5 266.308 72.4785 272.08 74.4463H272.081C277.862 76.3868 282.388 79.3547 285.63 83.3652L285.931 83.7432C288.987 87.6804 290.5 92.5993 290.5 98.4648V134.363C290.5 139.409 286.409 143.5 281.363 143.5C276.317 143.5 272.227 139.409 272.227 134.363V99.1953C272.227 93.8567 270.017 89.723 265.568 86.7432L265.566 86.7422C261.092 83.7152 254.908 82.1738 246.964 82.1738C241.495 82.1738 236.623 82.9115 232.342 84.3809L232.343 84.3818C228.379 85.7578 225.222 87.7176 222.848 90.249L222.383 90.7627C219.98 93.5239 218.773 96.8725 218.773 100.838V134.363C218.773 139.409 214.683 143.5 209.637 143.5C204.591 143.5 200.5 139.409 200.5 134.363V81.2559L200.512 80.8008C200.749 76.1282 204.612 72.4121 209.344 72.4121H212.212C215.512 72.4121 218.187 75.0877 218.188 78.3877V82.8906C218.188 83.1519 218.4 83.3633 218.661 83.3633C218.809 83.3632 218.955 83.293 219.054 83.166C221.588 79.9169 225.247 77.2744 230.002 75.2236L230.968 74.8213C236.416 72.5986 243.414 71.5 251.94 71.5Z" stroke="white"/>
<path d="M188.881 72.6572C193.036 72.6572 196.404 76.0254 196.404 80.1807V135.977C196.404 140.132 193.036 143.5 188.881 143.5C184.726 143.5 181.358 140.132 181.357 135.977V80.1807C181.357 76.0254 184.726 72.6573 188.881 72.6572ZM195.563 48.5156C195.84 48.4644 196.101 48.5393 196.319 48.6992L196.318 48.7002C198.398 50.1951 199.5 52.0444 199.5 54.2412C199.5 56.4392 198.398 58.2899 196.315 59.7852C194.275 61.2792 191.828 62.0166 189 62.0166L188.474 62.0078C185.864 61.9213 183.574 61.1849 181.625 59.7852L181.621 59.7822C179.578 58.2851 178.5 56.4347 178.5 54.2412C178.5 52.0476 179.578 50.1964 181.621 48.6992L181.625 48.6963V48.6973C181.846 48.5388 182.107 48.4655 182.383 48.5156C182.639 48.5623 182.851 48.7046 183.02 48.8613C183.35 49.1691 183.648 49.6635 183.924 50.2197C184.483 51.3489 185.061 52.9791 185.646 54.6064C186.239 56.2541 186.842 57.9099 187.464 59.1533C187.775 59.7763 188.078 60.2668 188.366 60.5947C188.665 60.9342 188.875 61.0166 189 61.0166C189.124 61.0166 189.335 60.9342 189.633 60.5947C189.921 60.2669 190.221 59.7762 190.531 59.1533C191.15 57.9101 191.751 56.2549 192.339 54.6074C192.919 52.9802 193.491 51.3502 194.042 50.2217C194.313 49.666 194.608 49.1721 194.933 48.8643C195.098 48.7077 195.308 48.563 195.563 48.5156Z" stroke="white"/>
<path d="M185.434 48.1791C185.154 47.4169 185.147 46.5802 185.415 45.8136C186.483 42.7619 190.766 42.6647 191.967 45.6666C192.308 46.521 192.3 47.476 191.943 48.324C190.711 51.2494 186.532 51.1575 185.434 48.1791Z" fill="white" stroke="white"/>
<path d="M112 22.1201C112 15.5145 119.853 12.0603 124.723 16.5234C126.292 17.9615 127.185 19.9919 127.186 22.1201V74.9795C127.186 75.0167 127.216 75.0469 127.253 75.0469C127.281 75.0467 127.31 75.0271 127.32 74.9941C129.121 69.1583 131.791 64.478 135.346 60.9785C139.054 57.3108 143.975 55.4961 150.056 55.4961C155.348 55.4962 159.999 57.1119 163.986 60.3447H163.985C167.977 63.5311 171.041 68.4117 173.206 74.9346L173.409 75.5479C175.475 81.9372 176.5 89.963 176.5 99.6094V164.806C176.5 169.607 172.607 173.5 167.806 173.5C163.004 173.5 159.111 169.607 159.111 164.806V99.6279C159.01 98.1529 158.94 96.8119 158.895 95.5742C158.72 90.771 157.963 84.933 156.07 80.3145C154.174 75.6875 151.214 72.4376 146.688 72.4375C142.976 72.4375 139.654 73.6248 136.704 76.0107C133.788 78.3966 131.456 81.897 129.729 86.5488C128.038 91.1906 127.186 96.8432 127.186 103.52V165.907C127.186 170.1 123.786 173.5 119.593 173.5C115.4 173.5 112 170.1 112 165.907V22.1201Z" stroke="white"/>
<path d="M53.5469 49.4248C55.498 49.7193 57.4691 49.8672 59.4424 49.8672H71.415C78.3954 49.8672 84.1712 51.1134 88.7109 53.6396H88.71C93.2357 56.1278 96.5992 59.5618 98.7822 63.9395L99.1777 64.7646C101.088 68.9211 102.038 73.5936 102.038 78.7725C102.038 83.9512 101.088 88.5982 99.1768 92.7031L98.7812 93.5176C96.5975 97.8351 93.2472 101.223 88.75 103.681L88.748 103.683C84.2388 106.116 78.5093 107.315 71.5889 107.315H66.2217V106.815H65.7217V85.5H66.7217V106.271C67.6629 106.116 68.8119 105.555 70.1016 104.683C71.6086 103.663 73.2249 102.281 74.7998 100.838C76.3822 99.388 77.8804 97.9181 79.2051 96.6807C79.861 96.068 80.4702 95.5164 81.0088 95.0713C81.5409 94.6316 82.0299 94.2729 82.4434 94.0654L82.4453 94.0645L82.9658 93.7949C85.521 92.4121 87.3699 90.527 88.5371 88.1416L88.5381 88.1396L88.7725 87.6465C89.9039 85.1481 90.4775 82.1944 90.4775 78.7725C90.4775 75.1232 89.8251 71.9579 88.5361 69.2637C87.2591 66.5944 85.2189 64.5306 82.3945 63.0693L82.3916 63.0674C79.5747 61.5808 75.8118 60.8184 71.0693 60.8184H52.6992V135.491C52.6991 139.914 49.1136 143.5 44.6904 143.5C40.2673 143.5 36.6817 139.914 36.6816 135.491V91.5693C36.6816 79.57 42.0022 68.1887 51.208 60.4941L26.459 51.6396C20.0759 50.1839 13.6656 48.7219 8.84961 47.207C6.44093 46.4494 4.40117 45.6696 2.95508 44.8574C2.23276 44.4517 1.63345 44.0239 1.20898 43.5674C0.783963 43.1102 0.5 42.5858 0.5 42H0.950195L1.07422 41.5059L53.5469 49.4248ZM82.9697 110.363C86.2813 109.327 89.8534 110.865 91.377 113.982L100.995 133.666C103.213 138.206 99.9082 143.5 94.8555 143.5C92.2876 143.5 89.9368 142.06 88.7695 139.772L78.8105 120.259C76.8333 116.384 78.8181 111.662 82.9697 110.363ZM1.94141 42.8867C2.26684 43.2367 2.76699 43.6049 3.44434 43.9854C4.79816 44.7457 6.75925 45.5008 9.15039 46.2529C11.7829 47.0809 14.9022 47.892 18.2441 48.7002L1.91602 42.8584C1.92442 42.8677 1.93271 42.8774 1.94141 42.8867Z" stroke="white"/>
<line x1="182" y1="150.5" x2="333" y2="150.5" stroke="#9966FF" stroke-width="5"/>
<path d="M277.5 148L274.5 153H176V148H277.5Z" fill="white"/>
<line x1="37" y1="150.5" x2="106" y2="150.5" stroke="#9966FF" stroke-width="5"/>
<path d="M106 148V150.5V153H105L102 148H106Z" fill="white"/>
<defs>
<linearGradient id="paint0_linear_12_18" x1="307.5" y1="71" x2="307.5" y2="143" gradientUnits="userSpaceOnUse">
<stop stop-color="#4000C0"/>
<stop offset="1" stop-color="#9966FF"/>
</linearGradient>
<linearGradient id="paint1_linear_12_18" x1="245.5" y1="72" x2="245.5" y2="143" gradientUnits="userSpaceOnUse">
<stop stop-color="#4000C0"/>
<stop offset="1" stop-color="#9966FF"/>
</linearGradient>
<linearGradient id="paint2_linear_12_18" x1="189" y1="49" x2="189" y2="143" gradientUnits="userSpaceOnUse">
<stop stop-color="#4000C0"/>
<stop offset="1" stop-color="#9966FF"/>
</linearGradient>
<linearGradient id="paint3_linear_12_18" x1="188.75" y1="37" x2="188.75" y2="56.5" gradientUnits="userSpaceOnUse">
<stop stop-color="#4000C0"/>
<stop offset="1" stop-color="#9966FF"/>
</linearGradient>
<linearGradient id="paint4_linear_12_18" x1="144.25" y1="6" x2="144.25" y2="173" gradientUnits="userSpaceOnUse">
<stop stop-color="#4000C0"/>
<stop offset="1" stop-color="#9966FF"/>
</linearGradient>
<linearGradient id="paint5_linear_12_18" x1="53" y1="42" x2="53" y2="143" gradientUnits="userSpaceOnUse">
<stop stop-color="#4000C0"/>
<stop offset="1" stop-color="#9966FF"/>
</linearGradient>
<linearGradient id="paint6_linear_12_18" x1="53" y1="42" x2="53" y2="143" gradientUnits="userSpaceOnUse">
<stop stop-color="#4000C0"/>
<stop offset="1" stop-color="#9966FF"/>
</linearGradient>
<linearGradient id="paint7_linear_12_18" x1="190" y1="0" x2="190" y2="200" gradientUnits="userSpaceOnUse">
<stop stop-color="#FFA812"/>
<stop offset="0.101116" stop-color="#FF9711"/>
<stop offset="0.520948" stop-color="#FF5109"/>
<stop offset="1" stop-color="#FF0000"/>
</linearGradient>
</defs>
</svg>
